<?xml version="1.0" standalone="no"?>
<!DOCTYPE svg PUBLIC "-//W3C//DTD SVG 1.1//EN" "http://www.w3.org/Graphics/SVG/1.1/DTD/svg11.dtd" >
<svg xmlns="http://www.w3.org/2000/svg">
<metadata>
Created by FontForge 20120731 at Tue Jun 13 16:58:11 2017
 By admin
</metadata>
<defs>
<font id="iconfont" horiz-adv-x="1024" >
  <font-face 
    font-family="iconfont"
    font-weight="500"
    font-stretch="normal"
    units-per-em="1024"
    panose-1="2 0 6 3 0 0 0 0 0 0"
    ascent="896"
    descent="-128"
    x-height="792"
    bbox="44 -113 1073 826"
    underline-thickness="0"
    underline-position="0"
    unicode-range="U+0078-E91D"
  />
<missing-glyph 
 />
    <glyph glyph-name=".notdef" 
 />
    <glyph glyph-name=".notdef" 
 />
    <glyph glyph-name=".null" horiz-adv-x="0" 
 />
    <glyph glyph-name="nonmarkingreturn" horiz-adv-x="341" 
 />
    <glyph glyph-name="x" unicode="x" horiz-adv-x="1001" 
d="M281 543q-27 -1 -53 -1h-83q-18 0 -36.5 -6t-32.5 -18.5t-23 -32t-9 -45.5v-76h912v41q0 16 -0.5 30t-0.5 18q0 13 -5 29t-17 29.5t-31.5 22.5t-49.5 9h-133v-97h-438v97zM955 310v-52q0 -23 0.5 -52t0.5 -58t-10.5 -47.5t-26 -30t-33 -16t-31.5 -4.5q-14 -1 -29.5 -0.5
t-29.5 0.5h-32l-45 128h-439l-44 -128h-29h-34q-20 0 -45 1q-25 0 -41 9.5t-25.5 23t-13.5 29.5t-4 30v167h911zM163 247q-12 0 -21 -8.5t-9 -21.5t9 -21.5t21 -8.5q13 0 22 8.5t9 21.5t-9 21.5t-22 8.5zM316 123q-8 -26 -14 -48q-5 -19 -10.5 -37t-7.5 -25t-3 -15t1 -14.5
t9.5 -10.5t21.5 -4h37h67h81h80h64h36q23 0 34 12t2 38q-5 13 -9.5 30.5t-9.5 34.5q-5 19 -11 39h-368zM336 498v228q0 11 2.5 23t10 21.5t20.5 15.5t34 6h188q31 0 51.5 -14.5t20.5 -52.5v-227h-327z" />
    <glyph glyph-name="shanchu" unicode="&#xe602;" 
d="M355 122q11 0 18.5 7.5t7.5 18.5v288q0 11 -7.5 18.5t-18.5 7.5t-18.5 -7.5t-7.5 -18.5v-288q0 -11 7.5 -18.5t18.5 -7.5zM512 122q11 0 18.5 7.5t7.5 18.5v288q0 11 -7.5 18.5t-18.5 7.5t-18.5 -7.5t-7.5 -18.5v-288q0 -11 7.5 -18.5t18.5 -7.5zM669 122q11 0 18.5 7.5
t7.5 18.5v288q0 11 -7.5 18.5t-18.5 7.5t-18.5 -7.5t-7.5 -18.5v-288q0 -11 7.5 -18.5t18.5 -7.5zM800 724h-109q-9 34 -37 56t-64 22h-157q-36 0 -64 -22t-37 -56h-108q-43 0 -73.5 -31t-30.5 -74v-26h26v-26h52v-497q0 -44 30.5 -74.5t74.5 -30.5h418q43 0 74 30.5
t31 74.5v497h52v26h26v26q0 43 -30.5 74t-73.5 31zM433 750h157q30 0 45 -26h-247q16 26 45 26zM773 70q0 -22 -15 -37.5t-37 -15.5h-418q-22 0 -39 15.5t-17 37.5l3 497h523v-497zM172 619q0 22 15.5 37t36.5 15h576q21 0 36.5 -15t15.5 -37h-680z" />
    <glyph glyph-name="jia" unicode="&#xe626;" 
d="M896 435h-326v326q0 18 -12.5 30.5t-30.5 12.5t-30.5 -12.5t-12.5 -30.5v-326h-326q-18 0 -30.5 -12.5t-12.5 -30.5t12.5 -30.5t30.5 -12.5h326v-326q0 -18 12.5 -30.5t30.5 -12.5t30.5 12.5t12.5 30.5v326h326q18 0 30.5 12.5t12.5 30.5t-12.5 30.5t-30.5 12.5zM532 751
z" />
    <glyph glyph-name="icon" unicode="&#xe601;" 
d="M902 356l-313 326q-31 31 -74 31t-73 -31l-314 -326q-38 -40 -23 -75q15 -33 54 -33h46v-251q0 -44 28.5 -77t70.5 -33h134v265q0 4 -0.5 12t0 10t1 7.5t2 7t4.5 4t7 3.5t11 1h105q6 0 10.5 -1t7 -3.5t4.5 -4t2.5 -7t0.5 -7.5v-10v-12v-265h133q43 0 71 33t28 77v251h46
q40 0 54 33q16 35 -23 75zM871 300h-97v-303q0 -22 -13.5 -40t-34.5 -18h-82v213q0 96 -76 96h-105q-77 0 -77 -96v-213h-82q-21 0 -34 18t-13 40v303h-98l-1 2l-1 2q8 14 10 16l313 326q15 16 36 15q19 1 34 -15l314 -326q1 -2 10 -16q-1 0 -1.5 -2t-1.5 -2z" />
    <glyph glyph-name="shezhi" unicode="&#xe61a;" 
d="M511.5 210q-71.5 0 -122 51t-50.5 122.5t50.5 122.5t122 51t122.5 -51t51 -122.5t-51 -122.5t-122.5 -51zM512 499q-48 0 -82 -34t-34 -82t34 -82t82 -34t82 34t34 82t-34 82t-82 34zM577 746v-38q0 -21 11.5 -38.5t31.5 -25.5q12 -5 26 -5q29 0 49 20l24 24l92 -92
l-24 -25q-15 -14 -19 -34.5t4 -40t25.5 -31t38.5 -11.5h37v-131h-37q-21 0 -38.5 -11.5t-25.5 -31t-4 -40t19 -35.5l24 -24l-92 -93l-24 25q-20 20 -49 20q-14 0 -26 -5q-20 -8 -31.5 -25.5t-11.5 -38.5v-37h-130v37q0 21 -11.5 38.5t-31.5 25.5q-12 5 -26 5q-29 0 -49 -20
l-24 -25l-93 93l25 24q15 15 19 35.5t-4 40t-25.5 31t-38.5 11.5h-37v131h37q21 0 38.5 11.5t25.5 31t4 40t-19 34.5l-25 25l93 92l24 -24q20 -20 49 -20q14 0 26 5q20 8 31.5 25.5t11.5 38.5v38h130zM577 803h-130q-23 0 -40 -18.5t-17 -42.5v-34q0 -8 -8 -11q-2 -1 -4 -1
q-5 0 -8 3l-25 25q-17 16 -40.5 16t-39.5 -16l-93 -93q-16 -16 -16 -40t16 -40l25 -25q5 -5 2 -12.5t-11 -7.5h-34q-24 0 -42 -17t-18 -40v-131q0 -23 18 -40t42 -17h34q8 0 11 -7.5t-2 -12.5l-25 -25q-16 -16 -16 -40t16 -40l93 -93q16 -17 39.5 -17t40.5 17l25 24q3 4 8 4
q2 0 4 -1q8 -3 8 -11v-34q0 -24 16.5 -42t40.5 -18h130q24 0 40.5 18t16.5 42v34q0 8 8 11q2 1 4 1q5 0 8 -4l25 -24q17 -17 40.5 -17t39.5 17l93 93q16 16 16 40t-16 40l-25 25q-5 5 -2 12.5t11 7.5h34q24 0 42 17t18 40v131q0 23 -18 40t-42 17h-34q-8 0 -11 7.5t2 12.5
l25 25q16 16 16 40t-16 40l-93 93q-16 16 -39.5 16t-40.5 -16l-25 -25q-3 -3 -8 -3q-2 0 -4 1q-8 3 -8 11v34q0 24 -17 42.5t-40 18.5v0z" />
    <glyph glyph-name="review" unicode="&#xe638;" 
d="M850 477q-12 0 -20.5 -8.5t-8.5 -20.5v-358q0 -30 -19.5 -51t-48.5 -21h-523q-30 0 -57 22t-27 50v524q0 28 27 53.5t57 25.5h299q12 0 20.5 8t8.5 20.5t-8.5 20.5t-20.5 8h-299q-58 0 -99 -39.5t-41 -96.5v-524q0 -57 40.5 -92.5t99.5 -35.5h523q58 0 91.5 35t33.5 93
v358q0 12 -8 20.5t-20 8.5zM909 738l-43 43q-25 25 -61.5 25t-61.5 -25l-81 -95l-375 -357v-10v-1l-55 -184l40 -36l174 61h3h8l356 376l96 77q25 26 25 63.5t-25 62.5zM309 174l25 81l51 -51zM437 234l-75 75l329 327l73 -72zM868 657l-58 -58l-83 84l57 57q8 9 20 9t21 -9
l43 -42q8 -9 8 -21t-8 -20z" />
    <glyph glyph-name="wujiaoxing" unicode="&#xe673;" 
d="M514 784l99 -306h321l-260 -189l100 -305l-260 189l-260 -189l99 305l-260 189h321zM514 784z" />
    <glyph glyph-name="lingdang" unicode="&#xe64d;" 
d="M804 210v275q0 106 -68.5 186.5t-171.5 98.5v22q0 14 -10 24t-24 10h-34q-14 0 -24 -10t-10 -24v-22q-103 -18 -171 -98.5t-68 -186.5v-275l-119 -97v-55h819v55zM889 92h-751v5l120 97v16v275q0 106 75 181t180.5 75t181 -75t75.5 -181v-275v-16l12 -10l107 -87v-5v0z
M513.5 -61q35.5 0 60.5 25t25 60h-171q0 -35 25 -60t60.5 -25z" />
    <glyph glyph-name="ditu" unicode="&#xe608;" 
d="M513 606q-56 0 -96 -40t-40 -96t40 -96t96 -40t96 40t40 96t-40 96t-96 40zM513 384q-36 0 -61 25t-25 61t25 61t61 25t61 -25t25 -61t-25 -61t-61 -25zM513 803q-152 0 -238.5 -96.5t-67.5 -245.5q4 -29 18.5 -65.5t33.5 -71t47 -76.5t51.5 -74.5t54 -71t48 -60
t40.5 -48.5t25 -30q27 28 70 83t93.5 127.5t88 151.5t42.5 135q14 153 -70 247.5t-236 94.5zM772 458q-3 -35 -34.5 -98t-77 -130.5t-78.5 -114t-57 -77.5q-59 64 -158 206.5t-113 213.5q-12 62 5 117.5t55 94t93 61.5t118 23q125 0 191 -82t56 -214z" />
    <glyph glyph-name="sousuo" unicode="&#xe60a;" 
d="M934 -7l-31 -31l-188 188q-73 -64 -166.5 -85.5t-186 5t-162.5 95.5q-72 72 -97.5 169t0 193.5t97.5 168.5t168.5 97.5t193.5 0t169 -97.5q69 -70 95.5 -162.5t5 -186t-85.5 -165.5l188 -189v0zM699.5 664.5q-63.5 63.5 -149 86.5t-170.5 0t-148.5 -86.5t-86.5 -148.5
t0 -170.5t86.5 -149t148.5 -86.5t170.5 0t149 86.5t86.5 149t0 170.5t-86.5 148.5z" />
    <glyph glyph-name="fenlei" unicode="&#xe637;" 
d="M902 702zM902 673h-628q-12 0 -20.5 8.5t-8.5 20.5t8.5 20.5t20.5 8.5h628q12 0 20.5 -8.5t8.5 -20.5t-8.5 -20.5t-20.5 -8.5zM901 380zM901 352h-628q-12 0 -20.5 8.5t-8.5 20t8.5 20t20.5 8.5h628q12 0 20.5 -8.5t8.5 -20t-8.5 -20t-20.5 -8.5zM902 54zM902 25h-628
q-12 0 -20.5 8.5t-8.5 20.5t8.5 20.5t20.5 8.5h628q12 0 20.5 -8.5t8.5 -20.5t-8.5 -20.5t-20.5 -8.5zM94 54q0 -20 14 -34t34 -14t34 14t14 34t-14 34t-34 14t-34 -14t-14 -34zM94 380.5q0 -19.5 14 -34t34 -14.5t34 14.5t14 34t-14 34t-34 14.5t-34 -14.5t-14 -34zM94 702
q0 -20 14 -34t34 -14t34 14t14 34t-14 34t-34 14t-34 -14t-14 -34z" />
    <glyph glyph-name="jiu" unicode="&#xe60d;" 
d="M128 -35h629v628h-629v-628zM722 0h-559v559h559v-559v0zM285 384h35v-227h-35v227zM425 384h35v-227h-35v227zM565 384h35v-227h-35v227zM293 730q-60 0 -106 -38.5t-59 -98.5h35q12 43 46 71.5t78 30.5q6 19 18 35h-12v0zM715 634v0q1 -5 3 -12v-1q1 -5 2 -12l0.5 -1
l0.5 -1v-12l0.5 -0.5t0.5 -1.5h35q-2 72 -53 122t-123 50q-36 0 -70 -15q14 -12 24 -27q23 8 47 8q45 0 81.5 -27t51.5 -70v0zM718 622q-2 7 -3 12q1 -5 3 -12zM721 595v12v-12zM581 730q46 0 83 -26.5t51 -69.5q-14 43 -51 70t-82 27q-24 0 -47 -8v-1q23 8 46 8zM720 609
l-2 12q1 -5 2 -12zM422 817q-51 0 -93.5 -28t-63.5 -73l33 2q0 1 0.5 1.5l0.5 0.5q19 31 50.5 49t68.5 18h0.5h0.5h0.5h0.5h2h1q7 -1 13 -2h0.5h0.5q63 -9 98 -62v0v0q18 6 37 7q-23 40 -63 63.5t-87 23.5v0zM436 785q-6 1 -13 2q8 -1 13 -2zM419 787h-0.5h-0.5
q-37 0 -68.5 -18t-50.5 -49q18 30 51 48.5t69 18.5v0zM762 462h-3h-2v-35h2h3q58 0 99 -41t41 -98.5t-41 -98.5t-99 -41h-3h-2v-35h2h3q73 0 124 51t51 123.5t-51 123.5t-124 51v0z" />
    <glyph glyph-name="icon17" unicode="&#xe611;" 
d="M777 -41h-530q-44 0 -75.5 31t-31.5 75v531q0 44 31.5 75.5t75.5 31.5h79v53h72q17 24 47.5 38.5t66.5 14.5t66.5 -14.5t47.5 -38.5h72v-53h79q44 0 75.5 -31.5t31.5 -75.5v-531q0 -44 -31.5 -75t-75.5 -31zM645 703h-59q0 22 -21.5 37.5t-52.5 15.5t-52.5 -15.5
t-21.5 -37.5h-59v-107h266v107zM831 596q0 22 -16 37.5t-38 15.5h-79v-106h-372v106h-79q-22 0 -38 -15.5t-16 -37.5v-531q0 -22 16 -37.5t38 -15.5h530q22 0 38 15.5t16 37.5v531zM698 119h-372q-11 0 -18.5 7.5t-7.5 18.5t7.5 19t18.5 8h372q11 0 18.5 -8t7.5 -19
t-7.5 -18.5t-18.5 -7.5zM698 251h-372q-11 0 -18.5 8t-7.5 19t7.5 18.5t18.5 7.5h372q11 0 18.5 -7.5t7.5 -18.5t-7.5 -19t-18.5 -8zM698 384h-372q-11 0 -18.5 8t-7.5 19t7.5 18.5t18.5 7.5h372q11 0 18.5 -7.5t7.5 -18.5t-7.5 -19t-18.5 -8z" />
    <glyph glyph-name="guanzhu" unicode="&#xe622;" 
d="M512 -27l-12 8q-396 278 -415 521v48q9 108 68.5 171t132.5 70q83 8 132.5 -15t93.5 -73q44 50 93.5 73t132.5 15q73 -7 133 -70t68 -169v-48q-19 -245 -415 -523z" />
    <glyph glyph-name="icon001" unicode="&#xe60e;" 
d="M733 378h-442q-7 0 -12 5t-5 12t5 12t12 5h442q7 0 12 -5t5 -12t-5 -12t-12 -5zM283 381q-29 16 -46 45.5t-17 62.5q0 52 37 88.5t88.5 36.5t88.5 -36.5t37 -88.5h-34q0 38 -26.5 65t-64.5 27t-65 -27t-27 -65q0 -24 12.5 -45.5t33.5 -33.5zM570 472h-116q-7 0 -12 5
t-5 12t5 12t12 5h116q7 0 12 -5t5 -12t-5 -12t-12 -5zM741 381l-17 29q21 12 33.5 33.5t12.5 45.5q0 38 -27 65t-65 27t-64.5 -27t-26.5 -65h-34q0 52 36.5 88.5t88.5 36.5t89 -36.5t37 -88.5q0 -33 -17 -62.5t-46 -45.5zM346 581q-7 0 -12 4.5t-5 11.5v189q0 7 5 12t12 5
t11.5 -5t4.5 -12v-189q0 -7 -4.5 -11.5t-11.5 -4.5zM682 581q-7 0 -12 4.5t-5 11.5v189q0 7 5 12t12 5t12 -5t5 -12v-189q0 -7 -5 -11.5t-12 -4.5zM752 225h-480q-7 0 -12 5t-5 12t5 12t12 5h480q7 0 12 -5t5 -12t-5 -12t-12 -5zM272 143q-7 0 -12 5t-5 12v82q0 7 5 12t12 5
t12 -5t5 -12v-82q0 -7 -5 -12t-12 -5zM752 143q-7 0 -12 5t-5 12v82q0 7 5 12t12 5t12 -5t5 -12v-82q0 -7 -5 -12t-12 -5zM449 -34q-7 0 -12 5t-5 12q0 66 -47 113t-113 47q-7 0 -12 5t-5 12t5 12t12 5q80 0 137 -57t57 -137q0 -7 -5 -12t-12 -5v0zM575 -34q-7 0 -12 5
t-5 12q0 80 57 137t137 57q7 0 12 -5t5 -12t-5 -12t-12 -5q-66 0 -113 -47t-47 -113q0 -7 -5 -12t-12 -5v0zM575 -34h-126q-7 0 -12 5t-5 12t5 12t12 5h126q7 0 12 -5t5 -12t-5 -12t-12 -5z" />
    <glyph glyph-name="icon031" unicode="&#xe629;" 
d="M512 18q-23 0 -38.5 16t-15.5 38.5t15.5 38t38.5 15.5t38.5 -15.5t15.5 -38t-15.5 -38.5t-38.5 -16zM512 99q-11 0 -19 -8t-8 -19t8 -19t19 -8t19 8t8 19t-8 19t-19 8zM665 -36h-306q-39 0 -66.5 28t-27.5 67v651q0 39 27.5 67t66.5 28h306q39 0 66.5 -28t27.5 -67v-651
q0 -39 -27.5 -67t-66.5 -28zM359 769q-24 0 -41.5 -17t-17.5 -42v-651q0 -25 17.5 -42t41.5 -17h306q24 0 41.5 17t17.5 42v651q0 25 -17.5 42t-41.5 17h-306zM638 136h-252q-27 0 -46.5 19.5t-19.5 47.5v480q0 27 19.5 47t46.5 20h252q27 0 46.5 -20t19.5 -47v-480
q0 -28 -19.5 -47.5t-46.5 -19.5zM386 722q-16 0 -27.5 -11.5t-11.5 -27.5v-480q0 -16 11.5 -28t27.5 -12h252q16 0 27.5 12t11.5 28v480q0 16 -11.5 27.5t-27.5 11.5h-252z" />
    <glyph glyph-name="zhifu" unicode="&#xe62b;" 
d="M512 804q-115 0 -211.5 -56t-153 -153t-56.5 -211t56.5 -211t153 -153.5t211 -56.5t211.5 56.5t153 153.5t56 211t-56 211t-153 153t-211 56v0zM512 23q-98 0 -181 48.5t-131.5 131.5t-48.5 181t48.5 181t131.5 131t181 48t181 -48t131 -131t48 -181t-48 -181
t-131 -131.5t-181 -48.5v0zM621 386q-24 19 -84 34v158q28 -5 44 -22q21 -19 27 -57l45 9q-5 27 -12.5 42.5t-22.5 30.5q-28 30 -81 37v31h-50v-31q-42 -6 -66 -23q-48 -32 -48 -94q0 -59 43 -87q26 -17 71 -28v-175q-35 5 -55 26q-20 23 -24 68l-46 -7q9 -60 36 -89
q30 -30 89 -37v-53h50v52q49 5 75 23q50 33 50 102q0 59 -41 90v0zM487 430q-18 5 -30 10q-40 20 -40 63q0 36 26 58q16 12 44 17v-148zM588 230q-19 -15 -51 -20v165q40 -11 53 -20q27 -21 27 -59q0 -44 -29 -66v0zM588 230z" />
    <glyph glyph-name="jian" unicode="&#xe61f;" 
d="M921 347h-818q-15 0 -26 11t-11 26t11 26t26 11h818q16 0 26.5 -11t10.5 -26t-10.5 -26t-26.5 -11v0zM921 347z" />
    <glyph glyph-name="yeguoditu" unicode="&#xe603;" 
d="M391 493q0 -50 36 -86t86 -35.5t85.5 36t35.5 84.5q0 50 -35.5 85t-85.5 36q-50 0 -86 -35t-36 -85zM512 -38q-27 37 -83 111.5t-99 132.5t-79 112q-39 57 -51 121.5t3.5 123.5t49.5 109.5t89.5 85t122.5 44.5q73 11 141.5 -10t118 -65.5t78 -110t25.5 -139.5
q-3 -92 -59 -168q-31 -42 -245 -332q-1 0 -12 -15v0z" />
    <glyph glyph-name="shaixuan" unicode="&#xe62f;" 
d="M907 699v-1l-233 -233q-13 -13 -15 -18q-2 -4 -2 -23q0 -112 2 -438q0 -3 -1 -7t-6.5 -10.5t-16.5 -6.5q-19 0 -19 24v444v35q1 3 5 7.5t7.5 7.5t8.5 7.5t7 5.5q25 24 84 82.5t104.5 105t45.5 47.5v0q8 6 8 16q0 8 -6.5 14.5t-15.5 6.5h-704q-9 0 -15.5 -6.5t-6.5 -14.5
q0 -10 8 -16v0q171 -175 230 -230q1 -1 7 -6t10 -9t8.5 -9t5.5 -9l1 -39v-238q0 -1 -1 -2.5t-6.5 -4t-13.5 -2.5q-7 0 -12 2.5t-7 4.5l-1 2q-2 163 0 239q0 12 -3 21q-2 6 -14 17q-17 15 -47.5 45t-61.5 61.5t-59.5 60.5t-46.5 47.5l-18 18.5v1q-20 18 -20 45
q0 25 18.5 43.5t44.5 18.5h704q26 0 44.5 -18.5t18.5 -43.5q0 -27 -20 -45v0v0zM907 699z" />
    <glyph glyph-name="study" unicode="&#xe613;" 
d="M909 683q-14 2 -40 2q-107 0 -232 -42q48 27 105.5 43.5t79.5 19t34 3.5q7 0 12 5.5t4.5 12.5t-5.5 11.5t-12 4t-18 -1.5t-40.5 -6t-58.5 -13t-68 -25t-72 -39q25 24 58 44.5t59.5 32t54 20.5t38 11t15.5 3q7 2 11 7.5t3 12.5t-7 11t-13 3q-11 -2 -28 -6.5t-59 -20
t-78.5 -36t-76.5 -57t-63 -81.5q-23 44 -63 81t-76.5 57.5t-78.5 36t-59 19.5t-28 6q-7 1 -13 -2.5t-7 -10.5t3 -13t11 -7q5 -1 15.5 -3.5t38 -11.5t54 -20.5t59.5 -31.5t59 -44q-34 22 -73 38.5t-68 25t-58 13.5t-40.5 6t-18.5 1.5t-12 -4.5t-5.5 -12t4.5 -12t12 -5
q12 -1 34 -3.5t79.5 -19.5t105.5 -44q-125 43 -232 43q-26 0 -40 -2q-10 -2 -16.5 -9.5t-5.5 -17.5l42 -561q1 -10 8 -16.5t16 -7.5q59 -2 115.5 -13.5t93 -25t70 -30t43.5 -23t16 -11.5t15 -5v0q6 0 11 3l6 4q13 9 34 20.5t64.5 31t106.5 33.5t131 17q9 0 16 6.5t8 16.5
l42 561q1 10 -5.5 18t-16.5 9v0zM502 7q-51 28 -143.5 58t-194.5 36l-42 561h10.5h7.5q168 0 362 -98v-557v0v0zM852 102q-184 -12 -330 -93v555q194 97 362 97h18l-42 -559h-8zM840 121z" />
    <glyph glyph-name="01" unicode="&#xe68b;" 
d="M220 766h584q11 0 18.5 -7t7.5 -17t-7.5 -17t-18.5 -7h-584q-11 0 -18.5 7t-7.5 17t7.5 17t18.5 7zM379 362q-34 8 -56.5 33.5t-22.5 59.5q0 -34 -22.5 -59.5t-57.5 -33.5v-315h159v315zM353 167q0 -10 -8 -17t-19 -7t-18.5 7t-7.5 17q0 13 13 20v55q-13 8 -13 21
q0 10 7.5 17t18.5 7t19 -7t8 -17q0 -13 -13 -21v-55q13 -7 13 -20zM804 362q-35 8 -57.5 33.5t-22.5 59.5q0 -40 -31 -68t-75 -28t-75 28t-31 68q0 -40 -31 -68t-75 -28v-312h398v315zM609 315l18 -17l-75 -68l-18 17zM534 179l150 136l18 -17l-150 -135zM627 163l-18 16
l75 68l18 -17zM936 455q0 -34 -22.5 -59.5t-56.5 -33.5v-315h53q11 0 18.5 -7t7.5 -17t-7.5 -17t-18.5 -7h-796q-11 0 -18.5 7t-7.5 17t7.5 17t18.5 7h53v315q-34 8 -56.5 33.5t-22.5 59.5v23h848v-23zM88 502h848l-106 192h-636zM512.5 658q5.5 0 9 -3.5t3.5 -8.5v-96
q0 -5 -3.5 -8.5t-9 -3.5t-9.5 3.5t-4 8.5v96q0 5 4 8.5t9.5 3.5zM412.5 655.5q11.5 -6.5 4.5 -18.5l-53 -91q-6 -11 -17.5 -4.5t-4.5 17.5l52 92q7 11 18.5 4.5zM306.5 655.5q11.5 -6.5 4.5 -18.5l-52 -91q-7 -11 -18.5 -4.5t-4.5 17.5l52 92q7 11 18.5 4.5zM606.5 657
q11.5 7 18.5 -5l56 -94q7 -11 -4 -18t-19 5l-56 93q-7 12 4.5 19zM715.5 657q11.5 7 18.5 -5l56 -94q7 -11 -4.5 -18t-18.5 5l-56 93q-7 12 4.5 19z" />
    <glyph glyph-name="hua" unicode="&#xe634;" 
d="M626 492q0 47 -33.5 80.5t-80.5 33.5t-80.5 -33.5t-33.5 -80.5t33.5 -80.5t80.5 -33.5t80.5 33.5t33.5 80.5zM512 424q-28 0 -48 20t-20 48t20 48t48 20t48 -20t20 -48t-20 -48t-48 -20zM816 242q-9 0 -23.5 -1t-50 -6.5t-68.5 -14.5t-72 -29t-67 -47v55q34 6 60 29
t37 57q13 -4 27 -4q34 0 63 17t46 46q21 37 16 77.5t-32 70.5q27 30 32 70.5t-16 77.5q-17 30 -46 46.5t-63 16.5q-14 0 -27 -3q-12 39 -45 63.5t-75 24.5t-75 -24.5t-45 -63.5q-13 3 -27 3q-34 0 -63 -16.5t-46 -46.5q-21 -37 -16 -77.5t32 -70.5q-27 -30 -32 -70.5
t16 -77.5q17 -29 46 -46t63 -17q14 0 27 4q11 -34 37 -57t60 -29v-59q-28 28 -67.5 49t-72.5 30.5t-70 15t-51.5 6.5t-23.5 1h-33l15 -33q5 -12 14.5 -29.5t40 -58t64.5 -71.5t89.5 -56t115.5 -25q52 0 104 25t87.5 55.5t68.5 70.5t44.5 57.5t18.5 29.5l20 35h-37zM436 298
l-13 40l-41 -9q-9 -2 -17 -2q-46 0 -69 40q-14 23 -11 49t21 45l28 31l-28 31q-18 19 -21 45t11 49q23 41 69 41q8 0 17 -2l41 -10l13 40q7 25 28.5 40.5t47.5 15.5t47.5 -15.5t28.5 -40.5l13 -40l41 10q9 2 17 2q46 0 69 -41q14 -23 11 -49t-21 -45l-28 -31l28 -31
q18 -19 21 -45t-11 -49q-23 -40 -69 -40q-8 0 -17 2l-41 9l-13 -40q-7 -25 -28.5 -40.5t-47.5 -15.5t-47.5 15.5t-28.5 40.5zM510 15q-50 0 -95 18.5t-78 49t-54 56.5t-38 55q164 -19 228 -105l37 -49l36 49q63 84 223 104q-20 -29 -43.5 -55t-57.5 -56.5t-75.5 -48.5
t-82.5 -18v0z" />
    <glyph glyph-name="shafa" unicode="&#xe60b;" 
d="M836 319v-277h-92v-4h-35v4h-394v-4h-35v4h-92v277q-40 7 -66 37.5t-26 71.5q0 46 32 78.5t77 32.5q43 0 75 -30v101q0 49 35 84.5t84 35.5h226q49 0 84 -35.5t35 -84.5v-101q32 30 75 30q45 0 77 -32.5t32 -78.5q0 -41 -26 -71.5t-66 -37.5zM280 280v148q0 32 -22 54
t-52.5 22t-52.5 -22t-22 -53.5t22 -53.5t52 -22h18v-275h57v202zM709 365v245q0 35 -24.5 59.5t-59.5 24.5h-226q-35 0 -59.5 -24.5t-24.5 -59.5v-330h394v85zM709 245h-394v-167h394v167zM818.5 504q-30.5 0 -52.5 -22t-22 -54v-350h57v275h18q30 0 52 22t22 53.5t-22 53.5
t-52.5 22z" />
    <glyph glyph-name="kongwujiaoxing" unicode="&#xe62d;" 
d="M232 -29l99 316l-254 217h320l115 294l129 -294h306l-240 -217l103 -317l-296 199zM513 208l239 -159l-81 247l196 177h-247l-106 242l-95 -242h-258l207 -176l-79 -249z" />
    <glyph glyph-name="qiche" unicode="&#xe610;" 
d="M907 415q10 0 17 7t7 17v180q0 48 -33.5 81.5t-81.5 33.5h-323q-48 0 -81.5 -33.5t-33.5 -81.5v-10h-114q-48 0 -78 -37l-87 -109q-29 -37 -29 -85v-234h66q2 -45 34 -75.5t76.5 -30.5t77 30.5t34.5 75.5h240q2 -45 34 -75.5t76.5 -30.5t77 30.5t34.5 75.5
q46 1 78.5 34.5t32.5 79.5v35q0 10 -7 17t-17 7t-17 -7t-7 -17v-35q0 -27 -19.5 -46.5t-47.5 -19.5h-5q-13 31 -40.5 49.5t-61.5 18.5t-62 -18.5t-41 -49.5h-179v427q0 27 19.5 46.5t46.5 19.5h323q28 0 47.5 -19.5t19.5 -46.5v-180q0 -10 7 -17t17 -7zM247 86
q-26 0 -44.5 18.5t-18.5 44.5t18.5 44t44.5 18t44 -18t18 -44t-18 -44.5t-44 -18.5zM349 192q-13 31 -40.5 49.5t-61.5 18.5t-62 -18.5t-41 -49.5h-26v186q0 30 19 54l87 109q15 19 40 19h114v-368h-29zM709 211q26 0 44 -18t18 -44t-18 -44.5t-44 -18.5t-44.5 18.5
t-18.5 44.5t18.5 44t44.5 18zM317 547q-10 0 -17.5 -7t-7.5 -17v-94h-94q-10 0 -17 -7.5t-7 -17.5t7 -17t17 -7h143v143q0 10 -7 17t-17 7z" />
    <glyph glyph-name="dianhua" unicode="&#xe612;" 
d="M637 -38q-94 0 -196.5 79.5t-175.5 209.5q-63 110 -84 219.5t2.5 193t87.5 119.5q42 24 96 22q4 1 9 1v0q43 0 78 -48t44 -120q6 -46 -2 -86t-29 -64q-22 -26 -54 -27q-1 0 -3 -2q-2 -3 0 -15q18 -44 42 -86q26 -47 57 -88h1q4 -5 7 -5q5 0 12 5q21 29 65 29
q59 0 123 -50q55 -44 77 -97t1 -91q-4 -7 -5 -9q-30 -47 -67 -68q-38 -22 -86 -22v0v0zM594 252q-21 0 -27 -11q-4 -6 -10 -9l-16 -9q-12 -5 -24 -5q-23 0 -40 17q-5 4 -7 10q-29 36 -60 89q-26 46 -45 95q-2 3 -2 7q-7 32 10 53q16 19 40 19q9 1 18 11q14 16 19.5 47
t0.5 66q-6 52 -29.5 89t-45.5 37h-3h-5h-1q-41 2 -72 -16q-51 -29 -67.5 -103t4 -171.5t74.5 -192.5q66 -117 158.5 -191t172.5 -74q35 0 63 15q31 18 51 53q3 5 5 8q10 19 -9 56.5t-59 68.5q-51 41 -94 41zM668 411q-2 0 -4 1q-10 2 -15.5 10t-3.5 18q3 14 -5.5 26
t-22.5 15q-10 2 -16 10t-4 17.5t10 15.5t18 4q34 -6 53.5 -34.5t13.5 -62.5q-2 -9 -8.5 -14.5t-15.5 -5.5zM749 413q-2 0 -4 1q-10 1 -15.5 9.5t-3.5 17.5q7 40 -16 74t-63 41q-10 2 -15.5 10t-4 17.5t10 15.5t17.5 4q60 -11 94.5 -61t23.5 -109q-2 -9 -8.5 -14.5
t-15.5 -5.5zM842 387h-4q-10 2 -15.5 10t-3.5 18q15 83 -33 152.5t-131 84.5q-10 2 -15.5 10t-3.5 17.5t10 15.5t18 4q102 -19 161 -104.5t41 -187.5q-2 -9 -8.5 -14.5t-15.5 -5.5z" />
    <glyph glyph-name="comiisxiangji" unicode="&#xe657;" 
d="M830 645h-88q-11 26 -16 35q-11 23 -20 31t-28 8h-330q-19 0 -30 -10.5t-23 -39.5q-3 -9 -11 -24h-90q-38 0 -64.5 -26.5t-26.5 -64.5v-414q0 -38 26.5 -64.5t64.5 -26.5h636q38 0 64.5 26.5t26.5 64.5v414q0 38 -26.5 64.5t-64.5 26.5zM136 554q0 24 17 41t41 17h97
q14 0 19 11t11 26q2 3 5 12q1 1 2 3q8 22 20 22h329q11 0 17 -15l1 -2q6 -14 8 -18q11 -25 12 -28q5 -11 16 -11h99q24 0 41 -17t17 -41v-414q0 -24 -17 -40.5t-41 -16.5h-636q-24 0 -41 16.5t-17 40.5v414v0zM512 161q77 0 131.5 54.5t54.5 131.5t-54.5 131.5t-131.5 54.5
t-131.5 -54.5t-54.5 -131.5t54.5 -131.5t131.5 -54.5zM512 501q64 0 109 -45.5t45 -109t-45 -108.5t-109 -45t-109 45t-45 108.5t45 109t109 45.5zM752 500h41q7 0 12 4.5t5 11.5t-5 12t-12 5h-41q-7 0 -12 -5t-5 -12t5 -11.5t12 -4.5z" />
    <glyph glyph-name="eye" unicode="&#xe679;" 
d="M945 393q-63 125 -179 198t-254 73t-254 -73t-179 -198q-5 -9 0 -18q63 -125 179 -198t254 -73t254 73t179 198q5 9 0 18zM512 146q-123 0 -228 63.5t-163 174.5q58 111 163 174.5t228 63.5t228 -63.5t163 -174.5q-58 -111 -163 -174.5t-228 -63.5zM512 598
q-88 0 -151 -63t-63 -151t63 -151t151 -63t151 63t63 151t-63 151t-151 63zM512 212q-71 0 -121.5 50.5t-50.5 121.5t50.5 121.5t121.5 50.5t121.5 -50.5t50.5 -121.5t-50.5 -121.5t-121.5 -50.5zM533 498.5q0 -8.5 -6 -14.5t-15 -6q-39 0 -66.5 -27.5t-27.5 -66.5
q0 -9 -6 -15t-14.5 -6t-14.5 6t-6 15q0 56 39.5 95.5t95.5 39.5q9 0 15 -6t6 -14.5z" />
    <glyph glyph-name="hunqing" unicode="&#xe61c;" 
d="M315 650q31 0 53 21.5t22 52.5t-22 53t-53 22t-53 -22t-22 -53t22 -52.5t53 -21.5zM679 609q31 0 53 22t22 53t-22 52.5t-53 21.5t-52.5 -21.5t-21.5 -52.5t21.5 -53t52.5 -22zM873 335q-17 43 -44 119.5t-44 119.5q-5 15 -21 18q-11 3 -88 2q-71 1 -82 -2
q-16 -3 -22 -18q-11 -29 -57 -157q-5 18 -16 58t-16.5 62.5t-5.5 33.5q0 25 -20.5 42.5t-35.5 17.5h-1h-42l-63 -214l-64 214h-38q-16 0 -38 -17t-22 -43v-247q0 -11 8 -19.5t20 -8.5v0q11 0 19.5 8.5t8.5 19.5q0 4 -0.5 19.5t-1.5 34t-1.5 41.5t0 43.5t1 38.5t3 28.5
t5.5 10.5q6 0 9 -32.5t4 -72t1 -43.5v-380q0 -16 11 -27t26.5 -11t26.5 11t11 27v257h21v-257q0 -16 11.5 -27t26.5 -11t26.5 11t11.5 27v380q0 4 1 43.5t3.5 72t8.5 32.5q9 0 31 -85.5t31 -130.5q0 -11 8.5 -19.5t19.5 -8.5q4 0 8 1q13 3 19 18q1 2 12 32.5t23.5 64.5
t21.5 55l16 -28l3 -11q-53 -99 -69 -170q-22 -94 -30 -278v0q-1 -11 10 -11h1h18l1 30v0q6 132 25.5 228t70.5 191q9 16 -31 82q12 29 37 29q13 0 24.5 -11t14.5 -26q3 14 14 25.5t25 11.5q13 0 23 -9.5t14 -21.5l1 -1q-1 -1 -5 -7.5t-7 -11.5t-7.5 -13t-7 -13.5t-5.5 -13.5
t-2 -12t2 -9q51 -77 69 -166t25 -223q0 -6 0.5 -14.5t0.5 -14.5v0l3 -30h17q5 0 8 3t3 8v1q-1 57 -2 92.5t-6.5 92t-15.5 97t-29.5 86t-45.5 80.5q-1 0 0 1l20 34q8 -21 20.5 -54.5t23.5 -63t12 -31.5q4 -11 13 -15.5t20 -0.5v0q10 5 13.5 15t-0.5 21zM270 638l8 -49l37 21
l36 -21l9 49l-45 -21z" />
    <glyph glyph-name="deng" unicode="&#xe780;" 
d="M530 619h-10t-16 -0.5t-20 -2t-25 -5t-26.5 -9t-28.5 -15t-28 -21t-27.5 -29t-25.5 -38.5q-10 -19 -16 -38.5t-7 -36t2 -34.5t7 -31.5t12.5 -29.5t15 -26t16.5 -22.5t15 -18t13 -14.5t9 -9q5 -6 9 -11t6 -9l3.5 -7t2 -6.5t0.5 -5v-5v-4.5v-54q0 -19 12 -31.5t22 -16
t16 -3.5h107q20 0 32.5 12t15.5 22.5t3 18.5v62q0 20 21 37q25 22 56.5 67.5t31.5 92.5q0 50 -19 91.5t-45 64.5t-56 39t-50 21t-28 5zM620 262q-32 -27 -32 -61v-62q0 -22 -20 -22h-106q-20 5 -20 20v55q1 32 -30 67l-7 7q-22 23 -36.5 44t-27.5 49.5t-11.5 60.5t19.5 64
q59 104 174 104h1h6q7 -1 20 -4.5t40.5 -17t49.5 -32.5t39.5 -55.5t17.5 -80.5q0 -38 -27 -77t-50 -59v0zM586 54h-137q-7 0 -11.5 -5t-4.5 -11.5t4.5 -11.5t11.5 -5h137q7 0 11.5 5t4.5 11.5t-4.5 11.5t-11.5 5zM324 261q-13 9 -24 -3l-85 -106q-10 -13 3 -24q12 -9 23 3
l86 106q9 14 -3 24zM274 436q-3 15 -18 14l-136 -24q-15 -3 -13 -19q1 -6 6.5 -10t12.5 -3l134 24q7 1 11 6.5t3 11.5zM234 666l112 -80q5 -4 12 -2.5t10 6.5q4 6 3 12.5t-7 10.5l-111 79q-6 4 -12.5 3t-10.5 -7q-9 -12 4 -22zM523 655q1 -7 6.5 -10.5t12 -2t10.5 6.5t2 12
l-25 133q-1 7 -6.5 10.5t-12.5 2.5t-10.5 -6.5t-1.5 -12.5zM700 558q6 -4 12.5 -2.5t10.5 6.5l76 114q4 5 2.5 12t-6.5 10q-6 4 -12.5 2.5t-10.5 -6.5l-76 -114q-4 -6 -2.5 -12.5t6.5 -9.5zM917 414q-1 7 -6.5 11t-12.5 2l-134 -23q-7 -2 -11 -7t-2 -12q1 -7 6.5 -11
t11.5 -3l135 24q15 3 13 19zM800 146l-110 81q-5 4 -12 3t-10 -6q-4 -6 -3 -12.5t6 -10.5l110 -81q6 -4 12.5 -3t10.5 7q9 13 -4 22zM586 -8h-137q-7 0 -11.5 -4.5t-4.5 -11t4.5 -11.5t11.5 -5h137q7 0 11.5 5t4.5 11.5t-4.5 11t-11.5 4.5z" />
    <glyph glyph-name="wodeyinxingqia" unicode="&#xe61b;" 
d="M372 337h-140q-8 0 -11 -1.5t-3 -9.5t3 -10t11 -2h140q26 0 26 12q0 6 -6.5 8.5t-12.5 2.5h-7zM768 524h-536q-14 0 -14 -21q0 -26 14 -26h536q16 0 16 26q0 11 -4 16t-8 5h-4zM860 664h-696q-29 0 -50.5 -22t-21.5 -51v-417q0 -29 21 -49.5t51 -20.5h693q29 0 52 21
t23 49v420q0 29 -21.5 49.5t-50.5 20.5zM885 197q0 -14 -16 -30t-30 -16h-654q-14 0 -30 16t-16 30v373q0 15 16 31t30 16h654q14 0 30 -16t16 -31v-373zM734 378h-48q-21 0 -33 -15q-12 -14 -12 -27v-52q2 -16 11 -24q20 -17 32 -16h26h26q13 -1 32 16q4 3 6.5 9t3.5 10
l1 5v52q0 13 -12 27q-6 7 -14 10.5t-14 4.5h-5zM745 291h-70v46h70v-46z" />
    <glyph glyph-name="dianzan" unicode="&#xe714;" 
d="M836 520q-9 3 -22 4.5t-36 2.5t-39 1.5t-54 1.5t-58 1q6 28 6 81q0 64 -38.5 115t-82.5 51q-30 0 -51.5 -21.5t-22.5 -51.5q0 -22 -4 -43.5t-14 -47.5t-30.5 -49t-49.5 -39q-16 -8 -26 -12l1 -2q-23 20 -49 20h-74q-30 0 -51.5 -21.5t-21.5 -52.5v-393q0 -30 21.5 -52
t51.5 -22h74q22 0 39.5 12t26.5 31l1 -0.5t2.5 -1t3.5 -0.5h1q29 -8 100 -24q74 -17 146 -17h135q63 0 88 48q10 18 22.5 46t31 80t30.5 124t12 147q0 26 -18 50.5t-51 33.5v0zM291 65q0 -10 -7.5 -17.5t-17.5 -7.5h-74q-10 0 -17 7.5t-7 17.5v393q0 11 7 18t17 7h74
q10 0 17.5 -7t7.5 -18v-393zM856 421q-3 -70 -13.5 -132t-23 -102t-25 -69.5t-20.5 -42.5l-9 -13q-11 -22 -44 -22h-135q-65 0 -136 16q-97 22 -114 27l4 361v28q40 17 70 44t46 59t23.5 64t7.5 65q0 10 7 17.5t18 7.5q22 0 47 -36t25 -81q0 -43 -3.5 -63t-19.5 -66
q117 0 174.5 -1.5t67 -2.5t24.5 -5q29 -9 29 -38v-15v0zM856 421z" />
    <glyph glyph-name="niao" unicode="&#xe667;" 
d="M764 194q16 56 7 155q-5 56 -20.5 97.5t-34.5 64t-37.5 37.5t-34 27.5t-19.5 23.5q-3 8 -7 33t-9 34q-47 79 -128 87q-123 13 -173 -46q-4 -4 -30 -12t-51 -14l-24 -6l92 -55q-5 -19 -12.5 -49t-19.5 -94.5t-12 -94.5q0 -78 31.5 -133.5t82.5 -84.5q13 -8 8 -99l-136 17
q-6 1 -10.5 -3t-5.5 -9l-2 -17q0 -6 3.5 -10.5t9.5 -5.5l555 -67q6 -1 10.5 3t5.5 9l2 17q0 6 -3.5 10.5t-9.5 5.5l-126 15q3 6 9 36.5t10 42.5q2 3 5 6t5.5 3.5t5.5 1.5l3 1q6 2 58.5 -26t57.5 -21q5 6 -27 58t-29 62zM394 63q9 42 29 61q7 7 38 13t65 3q101 -8 117 -26
q6 -7 10 -42t6 -41zM695 158q-7 -1 -14 -5.5t-10 -9.5l-4 -4l-24 15q-53 16 -108 19h-30.5t-24.5 -2t-23 -2q-10 -1 -23.5 -6.5t-21.5 -10.5l-8 -5q-6 36 -10 38q-20 11 -35 26q-23 23 -39 51t-22 48q-16 55 -10 109q5 43 16.5 97.5t21.5 87.5l9 33l-58 31q61 11 67 18
q37 44 128 34q66 -6 100 -64q5 -6 12.5 -38t9.5 -37q3 -9 15 -17.5t27.5 -19.5t32.5 -27t33 -47.5t26 -73.5q13 -145 3 -180q-8 -26 -6 -34q1 -6 5 -14t9 -15t9.5 -12.5t7.5 -9.5l3 -3q-5 4 -14 9t-26 13.5t-24 7.5z" />
    <glyph glyph-name="gouwuche2" unicode="&#xe607;" horiz-adv-x="1109" 
d="M925 419q-11 -30 -29 -50t-42 -20h-504l12 -71q1 -4 1.5 -13t1.5 -12t4.5 -6.5t10.5 -3.5h510v-52h-528q-21 0 -34.5 14.5t-17.5 37.5l-85 510h-126v53h140q17 -1 30 -36h6l12 -70h638q37 0 54 -16.5t16 -53.5zM907 647h-610l44 -246h478q7 0 16 -0.5t13 -0.5t9.5 1.5
t8.5 5.5t6 12l70 193q2 8 1.5 14t-0.5 9.5t-4 6t-5 3.5t-8 1.5t-8.5 0.5h-10.5zM442 155q40 0 68 -28t28 -68t-28 -68.5t-68 -28.5t-68.5 28.5t-28.5 68.5t28.5 68t68.5 28zM441.5 15q18.5 0 31 13t12.5 31t-12.5 31t-31 13t-31 -13t-12.5 -31t12.5 -31t31 -13zM810.5 155
q40.5 0 68.5 -28t28 -68t-28 -68.5t-68.5 -28.5t-68.5 28.5t-28 68.5t28 68t68.5 28zM810.5 15q18.5 0 31 13t12.5 31t-12.5 31t-31 13t-31 -13t-12.5 -31t12.5 -31t31 -13z" />
    <glyph glyph-name="iconshibai" unicode="&#xe619;" 
d="M511 783q108 0 199.5 -53.5t145 -145.5t53.5 -200t-53.5 -199.5t-145 -145t-199.5 -53.5t-200 53.5t-145.5 145t-53.5 199.5t53.5 200t145.5 145.5t200 53.5zM511 804q-114 0 -210.5 -56.5t-153 -153t-56.5 -210.5t56.5 -210.5t153 -152.5t210 -56t210.5 56t153 152.5
t56 210.5t-56 210.5t-153 153t-210 56.5v0zM379.5 562q-10.5 0 -18.5 -21t-8 -51.5t8 -52t18.5 -21.5t18.5 21.5t8 52t-8 51.5t-18.5 21zM641.5 562q-10.5 0 -18.5 -21t-8 -51.5t8 -52t18.5 -21.5t18.5 21.5t8 52t-8 51.5t-18.5 21zM662.5 169q-4.5 0 -7.5 3.5t-3 7.5
q0 39 -41.5 66.5t-100 27.5t-100 -27.5t-41.5 -66.5q0 -4 -3 -7.5t-7.5 -3.5t-7.5 3.5t-3 7.5q0 48 47.5 81.5t115 33.5t115 -33.5t47.5 -81.5q0 -4 -3 -7.5t-7.5 -3.5z" />
    <glyph glyph-name="gantanhao" unicode="&#xe64c;" 
d="M512 804q-114 0 -211 -56.5t-153.5 -153.5t-56.5 -211t56.5 -211t153.5 -153.5t211 -56.5t211 56.5t153.5 153.5t56.5 211t-56.5 211t-153.5 153.5t-211 56.5v0zM512 12q-101 0 -186.5 49.5t-135 135t-49.5 186.5t49.5 186.5t135 135t186.5 49.5t186.5 -49.5t135 -135
t49.5 -186.5t-49.5 -186.5t-135 -135t-186.5 -49.5v0zM512 594q-15 0 -25 -10.5t-10 -25.5v-228q0 -14 10 -24.5t25 -10.5t25 10.5t10 24.5v228q0 15 -10.5 25.5t-24.5 10.5v0zM512 243q-15 0 -25 -10.5t-10 -25t10 -24.5t25 -10t25 10t10 24.5t-10.5 25t-24.5 10.5v0z
M512 243z" />
    <glyph glyph-name="dianzuan" unicode="&#xe616;" 
d="M688 370h-41q-14 0 -20 9.5t0 22.5q1 3 1 5q-1 8 -2 30t-2 34q0 4 -5 4h-111q-54 0 -59 -1q-21 0 -39 5q-6 2 -27.5 7.5t-32.5 9.5q-38 13 -50 49q0 2 -4 22h-8v-30q0 -8 -1 -9.5t-9 -1.5h-33h-46q-3 0 -5 5q-1 2 -5 3q-38 7 -49 43q-1 4 -4 5q-6 1 -19 4.5t-19 4.5
q-4 1 -4 6v18.5v18.5q0 5 6 7q30 7 37 9q2 1 3 3q11 37 49 44q4 1 5 4q1 4 6 4h83q5 0 5 -6v-32h8q7 22 7 23q14 32 50 43q4 2 47 11q3 1 8 2t8 2q12 3 27 3h447q19 0 25 -15q8 -18 -5 -33q-5 -6 -14 -6q-8 -1 -11 -4t-3 -11q0 -15 1 -38q1 -32 8 -175q1 -31 4 -89.5
t4 -86.5q1 -11 1 -13q0 -17 15 -26q13 -7 16 -22q1 -2 1 -5q0 -8 1.5 -51.5t2.5 -66.5q0 -10 1 -28.5t1 -21.5q1 -17 -10.5 -29t-28.5 -13h-192q-17 1 -28 12t-11 28q-1 20 -2.5 67t-2.5 72v17v15q0 18 16 26q17 9 15 28q0 4 -6 86v2zM917 206v16q2 14 -12 22q-18 10 -19 32
q-1 15 -7 133q0 13 -2.5 60t-3.5 72q-4 84 -5 110q-1 21 0 31q1 28 26 29q3 0 6 2q7 6 2 17q-2 6 -11 6h-319h-5v-247h6q103 1 134 1q10 1 16 1q67 8 100 67q13 25 14 57q0 6 5 6q6 0 5 -7q-1 -17 -2 -22q-8 -47 -45.5 -79.5t-84.5 -32.5h-20v-6q2 -28 7 -90q6 -89 7 -98
q2 -30 -23 -44q-7 -5 -8 -10v-26h72v30q0 8 5.5 13t13.5 5h73q8 0 13 -5t5 -12q1 -4 1 -12v-10q0 -1 1 -9h55v0zM677 193v-4q1 -5 2.5 -55.5t2.5 -76.5q0 -11 7.5 -18t18.5 -7h190q12 0 19 7.5t7 19.5q-4 94 -6 130q0 5 -5 4h-47h-4v-5q3 -52 3 -54q0 -9 -5 -14t-14 -5
q-34 -1 -72 0q-18 0 -19 18q-1 12 -1 32q-1 1 -2 28h-75zM423 555v180q-34 -8 -37 -8q-30 -7 -37 -11q-37 -18 -37 -53q-1 -18 0 -97v-11h111zM554 736h-118v-247h118v247zM196 683h-8q-15 -3 -25 -15t-10 -27v-50q0 -22 18 -35q12 -8 25 -8v135zM241 541h32v149h-32v-149z
M315 546l4 -7q14 -24 43 -32q4 -1 42 -11q2 -1 19 -5v55h-108zM639 474v-4q2 -49 3 -61q1 -8 -2 -13q-6 -11 6 -12h37l4 1l-6 89h-42zM850 177q-2 49 -2 57q-1 8 -8 8h-68q-6 0 -7.5 -1.5t-1.5 -8.5q1 -19 2.5 -55t2 -43t6.5 -7h71q7 0 7 7t-2 43zM289 654v-74h8v74h-8z
M232 624h-27v-16h27v16zM109 603l29 -7v12h-29v-5zM138 635l-29 -7v-5h29v12zM205 590h27v9h-27v-9zM232 581h-27v-9h27v9zM232 642h-27v-9h27v9zM205 651h27v9h-27v-9zM232 563h-27v-7h27v7zM232 676h-27v-7h27v7zM205 541h27v5h-27v-5zM232 690h-27v-4h27v4zM770 643h50
q4 0 6 -1q3 -3 2 -6q0 -3 -3 -5q-2 -1 -8 -1h-97h-4q-6 2 -5.5 7.5t6.5 5.5h20h33zM767 669h49h4q6 -1 5 -6q0 -4 -4 -6q-1 -1 -6 -1h-97q-2 0 -4 1q-5 1 -5 6.5t6 5.5h15h37zM761 683h-45q-4 0 -6 1q-3 3 -2 6q0 2 4 5h5h89h2q8 0 8 -6t-8 -6h-28h-19zM752 709h-37h-5
q-5 1 -4 6q0 3 4 6h5q36 1 74 0h4q5 -1 5 -6t-5 -6h-4h-37zM730.5 438q-7.5 0 -13 5.5t-5.5 12.5q0 8 5.5 13.5t13 5.5t13 -5.5t5.5 -13.5t-5.5 -13t-13 -5zM738 456q0 7 -7.5 7t-7.5 -7q0 -3 2 -5t5 -2q8 0 8 7zM545 619.5v-47.5q0 -12 -7 -19t-19 -7h-44q-11 0 -18 7
t-7 18v48v52q0 9 6.5 15.5t15.5 6.5q26 1 50 0q11 0 17 -7t6 -18v-48.5zM536 620v48q0 16 -14 16q-12 1 -25 1q-12 0 -25 -1q-13 0 -13 -16v-97q0 -16 16 -16h44q17 0 17 17v48zM770 185q-1 35 -1 39q-1 13 13 13h48q13 0 13 -13q2 -40 3 -78q1 -14 -14 -14h-22h-25t-13 14
q0 8 -1 39h-1zM779 180v-36t5 -5h50q5 0 5 5t-1 36h-59zM836 220q0 6 -1.5 8t-7.5 2h-43q-6 0 -7 -2t0 -8h59zM778 202q-1 -3 0 -3.5t2 -0.5h1h52l4 2l-4 1q-9 1 -45 1h-10zM778 191q-1 -4 3 -4v0h53l3 2l-4 2h-42h-13zM806.5 209h26.5l3 2l-3 1h-27h-27l-2 -1l3 -2h26.5z
M497 565q-16 0 -16 16v24t-3 5q-21 15 -14 39q7 25 33 26q10 0 20 -6.5t14 -17.5q9 -25 -13 -41q-4 -2 -4 -6v-22q0 -9 -3.5 -13t-13.5 -4zM494 662v-84h7v84h-7zM481 654q-6 -6 -6 -15t6 -14v29zM514 625q6 4 6 14t-6 15v-29z" />
    <glyph glyph-name="vip" unicode="&#xe646;" 
d="M749 642l36 -39q17 -31 3 -62q-9 -21 -31 -38v0q-32 -26 -85 -26t-85 27q-24 30 -24 62q0 43 38 77l67 42l-156 121l-155 -121l66 -42q39 -34 39 -77q0 -31 -24 -60q-32 -29 -86 -29q-53 0 -85 26v0q-22 17 -31 38q-14 31 3 62l36 39l-185 52l87 -322h670l87 322z
M179 304h666v46h-666v-46zM473 241l-111 -279h-75l-113 279h72l70 -195q4 -14 10 -28q0 1 2 6q3 7 7 22l66 195h72zM493 -38h69v279h-69v-279zM721 60h-49v-98h-67v279h123q107 -2 111 -87q2 -95 -118 -94v0zM716 193h-44v-85h44q52 1 53 43q-1 41 -53 42z" />
    <glyph glyph-name="shexiangtou" unicode="&#xe63d;" 
d="M512 249q-72 0 -122.5 50.5t-50.5 122.5t50.5 122.5t122.5 50.5t122.5 -50.5t50.5 -122.5t-50.5 -122.5t-122.5 -50.5zM512 559q-57 0 -97 -40t-40 -97t40 -97t97 -40t97 40t40 97t-40 97t-97 40zM513.5 639q-15.5 0 -26.5 11t-11 26.5t11 26.5t26.5 11t26.5 -11
t11 -26.5t-11 -26.5t-26.5 -11zM513 684q-7 0 -7 -7t7 -7t7 7t-7 7zM653 -24h-308q-7 0 -12.5 5t-5.5 12.5t5.5 13t12.5 5.5h19l53 133l-4 1q-15 5 -30 11q-59 25 -104.5 70.5t-70.5 105.5q-26 61 -26 128t26 129q25 59 70.5 104.5t104.5 70.5q62 26 129 26t129 -26
q59 -25 104.5 -70.5t70.5 -104.5q26 -62 26 -129q0 -90 -45 -167q-44 -75 -120 -119q-29 -17 -60 -27l-5 -2l53 -134h20q7 0 12.5 -5.5t5.5 -13t-5.5 -12.5t-12.5 -5h-32v0zM403 12h224l-50 125h-3q-31 -6 -62 -6q-28 0 -56 5h-3l-50 -124v0zM512 755q-122 0 -208 -86
t-86 -208t86 -208t208 -86q79 0 147 39q67 39 107 106q40 69 40 149q0 122 -86 208t-208 86z" />
    <glyph glyph-name="jiaohuan" unicode="&#xe7e7;" 
d="M137 466h750q3 0 5 1h0.5h1t1 0.5t1.5 0.5l2 1l1 1q3 2 6 5v1.5v0.5q1 0 1 1t1 1v1v1l0.5 1l0.5 1q1 4 0 8q0 1 -0.5 1.5t-0.5 1v1v0.5q0 1 -2 2v2l-3 3l-239 239q-6 6 -14.5 6t-14.5 -6t-6 -14.5t6 -14.5l204 -205h-701q-9 0 -15 -6t-6 -14.5t6 -14.5t15 -6zM887 302
h-750q-3 0 -5 -1h-0.5h-1t-1 -0.5t-1.5 -0.5l-2 -1l-1 -1q-3 -2 -6 -5v-1.5v-0.5q-1 0 -1 -1t-1 -1v-1v-1l-0.5 -1l-0.5 -1q-1 -4 0 -8q0 -1 0.5 -1.5t0.5 -1v-1v-0.5q0 -1 2 -2v-2l3 -3l239 -239q6 -6 14.5 -6t14.5 6t6 14.5t-6 14.5l-204 205h701q9 0 15 6t6 14.5t-6 14.5
t-15 6z" />
    <glyph glyph-name="liebiaoyehuihua" unicode="&#xe6b4;" 
d="M743 468q-19 0 -33 -14t-14 -33t14 -33t33 -14t33 14t14 33t-14 33t-33 14zM276.5 468q-19.5 0 -33 -14t-13.5 -33t13.5 -33t33 -14t33 14t13.5 33t-13.5 33t-33 14zM509.5 468q-19.5 0 -33 -14t-13.5 -33t13.5 -33t33 -14t33 14t13.5 33t-13.5 33t-33 14zM517.5 799
q-117.5 0 -217 -50t-157.5 -136.5t-58 -188.5q0 -90 45.5 -168t123.5 -131v-158l142 96q59 -15 121 -15q118 0 217.5 50t157.5 136.5t58 189t-58 189t-157.5 136.5t-217 50zM517 90q-68 0 -131 20l-34 -28l-56 -42l-1 76v34q-76 46 -121 118t-45 155q0 91 52 167.5
t141.5 121t195 44.5t195 -44.5t141.5 -121t52 -167t-52 -167.5t-141.5 -121.5t-195.5 -44.5z" />
    <glyph glyph-name="guanzhu1" unicode="&#xe87b;" 
d="M511 -18l-11 8q-389 273 -408 511v48q8 105 66.5 167t131.5 69q81 8 129.5 -14.5t91.5 -71.5q43 49 92 71.5t130 14.5q72 -7 130.5 -68.5t66.5 -166.5v-47q-18 -240 -407 -513l-12 -8v0zM328 747q-16 0 -35 -1q-59 -6 -106.5 -58t-55.5 -141v-44q17 -215 380 -473
q363 258 380 474v45q-7 87 -55 139t-107 58q-72 6 -114 -14t-89 -76l-15 -18l-15 18q-42 50 -77.5 70.5t-90.5 20.5v0z" />
    <glyph glyph-name="bijiben-copy" unicode="&#xe600;" 
d="M932 96q-5 20 -52 96q-29 46 -67 102q-1 2 -3 3v58v15v303q0 23 -16 39t-39 16h-487q-22 0 -38.5 -16t-16.5 -39v-376q-1 -2 -2 -3q-37 -56 -67 -102q-47 -76 -52 -96q-7 -20 4 -35q15 -21 62 -21h708q47 0 62 21q10 15 4 35v0v0zM273 696h478q11 0 18.5 -7.5t7.5 -18.5
v-306v-20v-36h-531v362q0 11 8 18.5t19 7.5v0zM234 277h556q7 -11 20 -33.5t18 -30.5h-632q5 8 18 30.5t20 33.5v0zM898 80q-6 -9 -39 -9h-694q-33 0 -39 9q-3 4 -1 10v1l1 1q4 18 50 91h672q46 -73 50 -91l1 -1v-1q2 -6 -1 -10v0v0zM885 87zM554 170h-79q-10 0 -16.5 -6
t-6.5 -16v-47q0 -9 6.5 -15.5t16.5 -6.5h79q9 0 16 6.5t7 15.5v47q0 10 -7 16t-16 6v0zM554 105h-79v39h79v-39zM548 108z" />
    <glyph glyph-name="sbanicon" unicode="&#xe60f;" 
d="M866 800h-711q-24 0 -41.5 -17.5t-17.5 -41.5v-710q0 -24 17.5 -41.5t41.5 -17.5h711q25 0 42 17.5t17 41.5v710q0 24 -17 41.5t-42 17.5zM870 78q0 -21 -15 -36t-36 -15h-616q-21 0 -35.5 15t-14.5 36v615q0 21 14.5 36t35.5 15h616q21 0 36 -15t15 -36v-615zM230 203z
M766 203zM272 211zM355 166l161 161l161 -161l59 59l-161 161l161 161l-59 60l-161 -161l-161 161l-59 -60l161 -161l-161 -161zM759 211z" />
    <glyph glyph-name="gongwenbaoxian" unicode="&#xe609;" 
d="M828 674h-158v53q0 22 -15.5 37.5t-37.5 15.5h-210q-22 0 -37.5 -15.5t-15.5 -37.5v-53h-158q-44 0 -75 -31t-31 -74v-475q0 -44 31 -75t75 -31h632q44 0 75 31t31 75v475q0 43 -31 74t-75 31zM407 700q0 11 7.5 19t18.5 8h158q11 0 18.5 -8t7.5 -19v-26h-210v26zM881 94
q0 -22 -15.5 -37.5t-37.5 -15.5h-632q-22 0 -37.5 15.5t-15.5 37.5v290h267q-3 -12 -3 -26q0 -44 30.5 -75t74.5 -31t74.5 31t30.5 75q0 14 -3 26h267v-290zM459 358q0 14 8 26h91q8 -16 8 -26q0 -22 -15.5 -37.5t-37.5 -15.5t-38 15.5t-16 37.5zM881 437h-738v132
q0 21 15.5 36.5t37.5 15.5h632q22 0 37.5 -15.5t15.5 -36.5v-132z" />
    <glyph glyph-name="youhuiquan" unicode="&#xe62a;" 
d="M674 357h-55v30h55q10 0 17 7t7 17t-7 17t-17 7h-55v16l57 58q6 8 6 17.5t-7 16.5t-17 7t-17 -7l-45 -47l-46 47q-7 7 -17 7t-17 -7t-7 -16.5t6 -17.5l56 -57v-17h-54q-10 0 -17 -7t-7 -17t7 -17t17 -7h54v-30h-54q-10 0 -17 -7.5t-7 -17t7 -16.5t17 -7h54v-43
q0 -10 7 -17t17 -7t17 7t7 17v43h55q10 0 17 7t7 16.5t-7 17t-17 7.5zM351 416q-10 0 -17 7t-7 17v62q0 10 7 17t17 7t17 -7t7 -17v-62q0 -10 -7 -17t-17 -7zM351 243q-10 0 -17 7t-7 17v63q0 9 7 16t17 7t17 -7t7 -16v-63q0 -10 -7 -17t-17 -7zM915 491q18 5 18 23v94
q0 48 -32.5 81.5t-78.5 33.5h-620q-46 0 -78.5 -33.5t-32.5 -81.5v-94q0 -18 18 -23q29 -9 47 -35t18 -61.5t-18 -61.5t-47 -35q-18 -5 -18 -23v-94q0 -47 32.5 -81t78.5 -34h620q46 0 78.5 34t32.5 81v94q0 18 -18 23q-29 9 -47 35t-18 61.5t18 61.5t47 35zM829 305
q22 -31 56 -46v-78q0 -28 -18.5 -47.5t-44.5 -19.5h-450q3 5 3 11v32q0 9 -7 16.5t-17 7.5t-17 -7.5t-7 -16.5v-32q0 -6 3 -11h-128q-26 0 -44.5 19.5t-18.5 47.5v78q34 15 56 46q27 39 27 89.5t-27 89.5q-22 31 -56 46v78q0 28 18.5 47.5t44.5 19.5h125v-62q0 -10 7 -17
t17 -7t17 7t7 17v62h447q26 0 44.5 -19.5t18.5 -47.5v-78q-34 -15 -56 -46q-27 -39 -27 -89.5t27 -89.5z" />
    <glyph glyph-name="xiaoxi" unicode="&#xe60c;" 
d="M851 788h-678q-32 0 -54 -22t-22 -53v-489q0 -31 22 -53.5t54 -22.5h95l85 -168l169 168h329q32 0 54 22.5t22 53.5v489q0 31 -22 53t-54 22zM886 224q0 -14 -10 -24.5t-25 -10.5h-346l-141 -140l-71 140h-120q-15 0 -25 10.5t-10 24.5v489q0 14 10 24.5t25 10.5h678
q15 0 25 -10.5t10 -24.5v-489zM280 555h532v-41h-532v41zM331 381h429v-41h-429v41z" />
    <glyph glyph-name="xinyuandan" unicode="&#xe65c;" 
d="M687 26h-483q-30 0 -51 23.5t-21 55.5v558q0 32 21 55.5t51 23.5h483q30 0 51 -23.5t21 -55.5v-131h42v131q0 50 -33.5 85.5t-80.5 35.5h-483q-47 0 -80.5 -35.5t-33.5 -85.5v-558q0 -50 33.5 -85.5t80.5 -35.5h483q47 0 80.5 35.5t33.5 85.5h-42q0 -32 -21 -55.5
t-51 -23.5v0zM645 584h-444v-45h444v45zM379 406h-178v-44h178v44zM201 184h178v45h-178v-45zM688 421q-15 27 -45 42.5t-64.5 14.5t-66 -14.5t-52 -48.5t-19.5 -84q0 -23 7 -43t15 -32.5t25 -27.5t26.5 -21.5t32 -20.5t29.5 -18q41 -28 75 -62.5t37 -50.5q1 15 35.5 49
t75.5 64q9 6 35 22.5t38 26t29 27.5t24.5 39.5t8.5 48.5q1 59 -28 97t-68.5 46.5t-82 -5.5t-67.5 -49zM888 328q-3 -25 -17 -46t-27.5 -31.5t-37.5 -26t-33 -22.5q-77 -59 -86 -77q-5 10 -32.5 35t-53.5 42q-8 6 -28 17.5t-31 20t-25.5 21.5t-21.5 30t-8 37q-2 44 15.5 71.5
t44.5 32t55.5 -3t52.5 -32.5t32 -58q21 61 74 86t94.5 -2t32.5 -94z" />
    <glyph glyph-name="fenxiang" unicode="&#xe605;" 
d="M885 379q-12 0 -20 -8.5t-8 -20.5v-266q0 -26 -18 -44t-43 -18h-588q-25 0 -43 18t-18 44v560q0 25 18 43.5t43 18.5h192q11 0 19 8t8 19.5t-8 20t-19 8.5h-192q-48 0 -82.5 -35t-34.5 -83v-560q0 -49 34.5 -84t82.5 -35h588q48 0 82.5 35t34.5 84v266q0 12 -8.5 20.5
t-19.5 8.5v0zM300 213q-2 -11 4.5 -20.5t18.5 -12.5h5q10 0 17.5 6.5t9.5 16.5q3 13 9 37t31 86t59 115q68 103 162 162q89 56 200 69l-91 -95q-8 -8 -8 -19.5t8.5 -19.5t19.5 -8q12 0 20 8l140 147h1v1h1v0v1l0.5 0.5l0.5 0.5v0.5t1 0.5v0v1v0v0l1 1v0v0.5v0.5l0.5 0.5
l0.5 0.5v0.5t0.5 1t0.5 1v0.5v0.5v0.5v1h1v0v1v1v0v0.5v0.5v0v1v0v0.5v0.5v0v1v0v0v0v2v0v0v0v1v1v0v0v1v0v0v1v0v0v1h-0.5t-0.5 1v0v1v0q0 1 -1 1v0v1v0v0v0v1v0q0 1 -1 1v0v1v0l-1 1v1h-1v0v1v0v0v0l-0.5 0.5l-0.5 0.5v0v1h-1v0q0 1 -1 1v0q0 1 -1 1v0q0 1 -1 1v0
q0 1 -1 1v0l-1 1v0h-1v0v1h-1v0l-0.5 0.5t-1 0.5h-0.5h-0.5t-0.5 0.5t-0.5 0.5h-1h-0.5v0l-205 69q-11 4 -21 -1.5t-14 -16.5t1.5 -21.5t16.5 -13.5l82 -28q-91 -20 -168 -68q-104 -65 -178 -179q-37 -57 -64.5 -124t-34 -93t-9.5 -42v0v0z" />
    <glyph glyph-name="liwu" unicode="&#xe606;" 
d="M821 99zM820 213q0 -12 8 -20.5t20 -8.5t20.5 8.5t8.5 20.5v145q0 15 -6 29q25 7 41 28t16 47v104q0 33 -22.5 56t-55.5 23h-30q23 39 20 72q-4 41 -43 67q-41 27 -100 13q-46 -12 -97 -49t-87 -85q-36 48 -86.5 85t-97.5 49q-58 14 -99 -13q-40 -25 -43 -67
q-3 -34 19 -72h-29q-34 0 -58 -23t-24 -56v-104q0 -26 15.5 -47t40.5 -29q-5 -15 -5 -28v-311q0 -33 24.5 -57t57.5 -24h570q33 0 56 24t23 57v52q0 11 -8.5 20t-20.5 9t-20 -9t-8 -20v-52q0 -9 -6.5 -16.5t-15.5 -7.5h-258v358h258q10 0 16 -6.5t6 -16.5v-145zM244 712
q1 13 17 24q20 13 54 4q32 -8 69.5 -34t68.5 -61h-175q-12 12 -24 31.5t-10 35.5zM483 23h-255q-9 0 -17 7.5t-8 16.5v311q0 10 8 16.5t17 6.5h255v-358zM483 438h-306q-10 0 -17.5 7.5t-7.5 16.5v104q0 9 7.5 15.5t17.5 6.5h306v-150zM711 740q35 9 54 -4q16 -10 18 -24
q1 -16 -10.5 -35.5t-23.5 -31.5h-176q31 35 68.5 61t69.5 34zM871 462q0 -10 -6 -17t-15 -7h-310v150h310q9 0 15 -6.5t6 -15.5v-104v0z" />
    <glyph glyph-name="xie" unicode="&#xe62e;" 
d="M502 -40h-287q-128 -1 -128 125v562q-1 123 116 127q48 1 100 1.5t120.5 0.5h100.5q55 0 55 -29q0 -9 -3 -15.5t-6.5 -9.5t-11.5 -4.5t-12.5 -2t-14.5 0t-13 0.5q-221 -2 -275 0q-52 2 -75 -19.5t-23 -72.5q3 -265 0 -516q0 -48 20 -69t68 -21q158 2 528 1q43 0 63 20
t19 63t0 276q0 11 0.5 17.5t3.5 15t10 12t19 2.5q8 -1 13 -5t6.5 -13t2 -13t0.5 -16q0 -252 -1 -309q-2 -55 -33 -82t-87 -27h-87h-102h-86zM895 808q33 -10 40.5 -30t-15.5 -45q-183 -186 -404 -399q-8 -7 -18 -12t-22 -4.5t-20 10.5q-7 8 -5.5 26.5t8.5 25.5
q136 142 413 422q2 2 5.5 3t9 1.5t8.5 1.5z" />
    <glyph glyph-name="chenggong" unicode="&#xe61d;" 
d="M105 384q0 -110 54.5 -204t148.5 -148.5t204 -54.5t204 54.5t148.5 148.5t54.5 204t-54.5 204t-148.5 148.5t-204 54.5t-204 -54.5t-148.5 -148.5t-54.5 -204zM934 384q0 -114 -56.5 -211.5t-154 -154t-211.5 -56.5t-211.5 56.5t-154 154t-56.5 211.5t56.5 211.5t154 154
t211.5 56.5t211.5 -56.5t154 -154t56.5 -211.5zM411 453q5 0 8.5 3.5t3.5 8t-3.5 8t-8.5 3.5h-92q-5 0 -8 -3.5t-3 -8t3 -8t8 -3.5h92zM512 158q70 0 127.5 40t82.5 105q1 2 1 4q0 5 -3.5 8.5t-8.5 3.5q-7 0 -10 -8q-23 -58 -74.5 -94t-114.5 -36t-114.5 36t-74.5 94
q-3 8 -10 8q-5 0 -8.5 -3.5t-3.5 -8.5q0 -2 1 -4q25 -65 82.5 -105t127.5 -40v0zM619 461v0q0 -16 11.5 -27.5t27.5 -11.5t27 11.5t11 27.5v0v0q0 16 -11 27t-27 11t-27.5 -11t-11.5 -27v0z" />
    <glyph glyph-name="wechat" unicode="&#xe621;" 
d="M743 820h-462q-85 0 -145 -60.5t-60 -145.5v-462q0 -85 60 -145t145 -60h462q85 0 145 60t60 145v462q0 85 -60 145.5t-145 60.5zM512 151q-48 0 -93 12q-22 -4 -40 -14l-43 -29q-25 -17 -16 13l13 45v7q0 10 -3 20q-53 34 -83 86t-30 111q0 103 86.5 177t208.5 74
q73 0 136.5 -28.5t104.5 -77.5l-275 -131q-32 -19 -57 4l-44 39q-30 9 -22 -19l48 -116q18 -29 53 -4l319 195q32 -53 32 -113q0 -104 -86.5 -177.5t-208.5 -73.5v0z" />
    <glyph glyph-name="shang" unicode="&#xe614;" 
d="M512.5 54q-18.5 0 -31.5 -13t-13 -31.5t13 -31.5t31.5 -13t31.5 13t13 31.5t-13 31.5t-31.5 13zM512.5 262q-18.5 0 -31.5 -13t-13 -31.5t13 -31.5t31.5 -13t31.5 13t13 31.5t-13 31.5t-31.5 13zM809 522l-262 264q-7 10 -18 13l-1 1q-6 2 -14 2l-0.5 0.5t-1.5 0.5
l-1.5 -0.5l-1.5 -0.5q-4 0 -9 -2q-4 -1 -9 -3q-1 -1 -3 -2.5t-2.5 -1.5t-2 -1t-2.5 -2l-266 -268q-13 -12 -13 -30.5t13 -31.5t31 -13t31 13l191 192v-227q0 -18 13.5 -31.5t31.5 -13.5t31 13t13 32v226l190 -191q13 -13 31 -13t31 13t13 31.5t-13 30.5z" />
    <glyph glyph-name="qipao" unicode="&#xe91d;" 
d="M884 559q-31 65 -87 115t-129 77q-74 28 -156 28t-156 -28q-73 -27 -129 -77t-87 -115q-32 -67 -32 -141q0 -89 47 -168q41 -70 112 -118v-141v0q0 -9 6.5 -15.5t15.5 -6.5t15 5l106 96q50 -12 102 -12q82 0 156 28q73 27 129 77q56 49 87 114q32 67 32 141t-32 141z
M512 102q-53 0 -103 13q-11 3 -20 -5l-78 -70v103q0 13 -10 19q-70 45 -109.5 113t-39.5 143q0 86 48.5 159t131 115.5t180.5 42.5t180.5 -42.5t131 -115.5t48.5 -159t-48.5 -158.5t-131 -115t-180.5 -42.5zM667 535l-204 -204l-107 97q-12 11 -28.5 10.5t-27.5 -12.5
t-10 -28.5t13 -27.5l134 -123q12 -10 27 -10q16 0 28 12l231 230q11 12 11 28.5t-11.5 28t-28 11.5t-27.5 -12z" />
    <glyph glyph-name="tuihuanhuo" unicode="&#xe6a4;" horiz-adv-x="1034" 
d="M512 -38q-114 0 -213 58t-155 157q-42 75 -51 159.5t12.5 161.5t73 144.5t126.5 109.5q97 54 206 54q144 0 258 -88q1 0 1 -1q9 -6 10 -16q1 -11 -5 -19q-8 -9 -20 -9q-6 0 -12 3l-1 -1l-3 2q-103 80 -231 80q-95 0 -180 -48q-64 -37 -109.5 -94.5t-65.5 -129.5
q-41 -148 34 -282q49 -88 136.5 -139t188.5 -51q96 0 182 48q65 37 110.5 96t64.5 127t11.5 142t-44.5 140l-1 2v1q-4 8 -1 17.5t12 14.5q6 3 12 3q14 0 21 -12h1q42 -75 51 -159.5t-12.5 -161.5t-73.5 -144.5t-126 -109.5q-96 -55 -207 -55zM574 171q-10 0 -17.5 7t-7.5 18
q1 11 9 19l81 81h-315q-10 0 -17.5 7.5t-7.5 18t7.5 17.5t17.5 7h376q3 0 9 -1q5 -2 9 -6q8 -8 6 -20q0 -5 -2 -9q-2 -3 -6 -7l-123 -124q-8 -8 -19 -8zM324 422q-10 0 -17.5 7t-7.5 18q0 12 10 20l121 122q9 8 20 8q10 0 17 -7t7 -18t-8 -19l-81 -81h315q10 0 17.5 -7.5
t7.5 -18t-7.5 -17.5t-17.5 -7h-376z" />
    <glyph glyph-name="liulanlishi" unicode="&#xe672;" 
d="M506 722v91l-199 -115l199 -115v92q135 -5 229.5 -103t94.5 -234q0 -91 -45 -168.5t-122.5 -122.5t-169 -45t-169 45t-122.5 122.5t-45 168.5v9h-47v-9q0 -104 51.5 -192.5t139.5 -139.5t192 -51t192.5 51t140 139.5t51.5 192.5q0 102 -49.5 189t-135 139t-186.5 56z
M485 548q-7 5 -17 5t-17 -5q-8 -6 -8 -16v-221v-2q-1 -9 5 -15l157 -157q5 -5 13 -5h4q9 1 16 8q7 8 8 17.5t-5 15.5l-148 147v212q0 10 -8 16z" />
    <glyph glyph-name="shenglve" unicode="&#xe617;" 
d="M589 700q0 33 -23 56t-56 23t-56 -23t-23 -55.5t23 -55.5t56 -23t56 23t23 55v0zM589 385q0 33 -23 56t-56 23t-56 -23t-23 -55.5t23 -56t56 -23.5t56 23.5t23 55.5v0zM589 70q0 33 -23 56t-56 23t-56 -23t-23 -56t23 -56t56 -23t56 23t23 56v0zM589 70z" />
    <glyph glyph-name="ren" unicode="&#xe604;" 
d="M875 -37q-5 141 -105 241q-55 55 -126 82q35 19 64 48q80 81 80 194t-80 193.5t-193.5 80.5t-193.5 -80.5t-80 -193.5t80 -194q29 -29 65 -48q-72 -27 -126 -82q-101 -100 -106 -241v-4h55v3q5 119 89 204q82 82 198 89q11 -1 19 -1t18 1q116 -7 198 -89q85 -85 90 -203
v-4h54v4v0zM734 528q0 -85 -58.5 -148.5t-142.5 -70.5q-18 1 -36 0q-85 7 -143.5 70.5t-58.5 148.5q0 91 64.5 155t155 64t155 -64t64.5 -155z" />
    <glyph glyph-name="peishi" unicode="&#xe66f;" 
d="M734 500q-35 35 -82 59l118 112h2v1l-88 134h-345l-87 -135h-1h1l-1 -1h1l118 -111q-43 -21 -81 -59q-93 -93 -93 -223q0 -131 93 -222q92 -93 222 -93q131 0 223 93q92 92 92 222q0 131 -92 223zM660 608l-104 -99l68 170h112zM452 708l57 62l58 -62h-115zM593 679
l-82 -189l-75 189h136h21zM711 708h-102l-67 73h128l44 -69v-4h-3zM351 781h123l-68 -75h-101zM401 676l66 -161l-182 161h116zM511 -7q-117 0 -200.5 83.5t-83.5 200.5q0 87 48 158t125 104l111 -100l111 100q78 -33 125.5 -104t47.5 -157q1 -118 -82.5 -201.5
t-201.5 -83.5v0z" />
    <glyph glyph-name="shitu" unicode="&#xe618;" 
d="M422 781h-256q-21 0 -36 -15t-15 -36v-256q0 -22 15 -37t36 -15h256q22 0 37 15t15 37v256q0 21 -15 36t-37 15zM422 499q0 -10 -7.5 -17.5t-17.5 -7.5v0h-205q-11 0 -18.5 7.5t-7.5 17.5v0v205q0 11 7.5 18.5t18.5 7.5h205v0q10 0 17.5 -7.5t7.5 -18.5v-205zM858 781
h-256v0q-22 0 -37 -15t-15 -36v-256q0 -22 15 -37t37 -15h256v0q21 0 36 15t15 37v256q0 21 -15 36t-36 15v0zM858 499q0 -10 -7.5 -17.5t-18.5 -7.5v0h-205q-10 0 -17.5 7.5t-7.5 17.5v0v205q0 11 7.5 18.5t17.5 7.5v0h205v0q11 0 18.5 -7.5t7.5 -18.5v-205zM422 346h-256
q-21 0 -36 -15t-15 -37v0v-256q0 -21 15 -36t36 -15v0h256q22 0 37 15t15 36v0v256q0 22 -15 37t-37 15v0zM422 64q0 -11 -7.5 -18.5t-17.5 -7.5v0h-205q-11 0 -18.5 7.5t-7.5 18.5v0v205q0 10 7.5 17.5t18.5 7.5h205v0q10 0 17.5 -7.5t7.5 -17.5v0v-205zM858 346h-256v0
q-22 0 -37 -15t-15 -37v0v-256q0 -21 15 -36t37 -15v0h256v0q21 0 36 15t15 36v0v256q0 22 -15 37t-36 15v0zM858 64q0 -11 -7.5 -18.5t-18.5 -7.5v0h-205q-10 0 -17.5 7.5t-7.5 18.5v0v205q0 10 7.5 17.5t17.5 7.5v0h205v0q11 0 18.5 -7.5t7.5 -17.5v0v-205z" />
    <glyph glyph-name="bukejian" unicode="&#xe632;" horiz-adv-x="1166" 
d="M1070 435q-69 138 -197.5 218.5t-280.5 80.5t-280.5 -80.5t-197.5 -218.5q-3 -4 -3 -9.5t3 -10.5q69 -138 197.5 -218.5t280.5 -80.5t280.5 80.5t197.5 218.5q3 5 3 10.5t-3 9.5v0zM592 162q-136 0 -251.5 70.5t-180.5 192.5q65 122 180.5 192.5t251.5 70.5t251.5 -70.5
t180.5 -192.5q-65 -122 -180.5 -192.5t-251.5 -70.5zM592 661q-98 0 -167 -69t-69 -167t69 -167t167 -69t167 69t69 167t-69 167t-167 69zM592 235q-79 0 -134.5 55.5t-55.5 134.5t55.5 134.5t134.5 55.5t134.5 -55.5t55.5 -134.5t-55.5 -134.5t-134.5 -55.5zM615 551.5
q0 -9.5 -6.5 -16t-16.5 -6.5q-43 0 -73.5 -30.5t-30.5 -73.5q0 -9 -6.5 -16t-16 -7t-16 7t-6.5 16q0 62 43.5 105.5t105.5 43.5q10 0 16.5 -6.5t6.5 -16zM223 23q-7 -6 -16 -5t-16 8l-5 6q-6 7 -6 16.5t7 15.5l774 682q7 6 16 5t16 -8l5 -6q6 -7 6 -16.5t-7 -15.5l-774 -682
v0z" />
    <glyph glyph-name="-" unicode="&#xe615;" 
d="M347 300h-84v-84h84v84zM263 90h84v84h-84v-84zM389 174v-84h84v84h-84zM515 174v-84h83v84h-83zM510 804l-415 -416l30 -29l385 385l386 -385l30 29zM808 48q0 -17 -12 -29.5t-30 -12.5h-503q-18 0 -30 12.5t-12 29.5v336h-42v-336q0 -34 24.5 -59t59.5 -25h503
q35 0 59.5 25t24.5 59v336h-42v-336v0z" />
  </font>
</defs>
</svg>
